<?xml version="1.0" encoding="utf-8"?>
<!-- Generator: Adobe Illustrator 23.1.1, SVG Export Plug-In . SVG Version: 6.00 Build 0)  -->
<svg version="1.1" xmlns="http://www.w3.org/2000/svg" xmlns:xlink="http://www.w3.org/1999/xlink" x="0px" y="0px"
	 viewBox="0 0 100 110.4" style="enable-background:new 0 0 100 110.4;" xml:space="preserve">
<style type="text/css">
	.st0{fill:none;}
</style>
<g id="Layer_2">
</g>
<g id="Layer_1">
	<g>
		<path d="M37,15.1c0.3,0.8,1.1,1.3,1.9,1.3c0.3,0,0.5-0.1,0.8-0.2c1-0.4,1.5-1.6,1.1-2.6l-2.9-7c-0.4-1-1.6-1.5-2.7-1.1
			c-1,0.4-1.5,1.6-1.1,2.6L37,15.1z"/>
		<path d="M27.9,22.1c0.4,0.4,0.9,0.6,1.4,0.6s1-0.2,1.4-0.6c0.8-0.8,0.8-2.1,0-2.9l-5.3-5.3c-0.8-0.8-2.1-0.8-2.9,0s-0.8,2.1,0,2.9
			L27.9,22.1z"/>
		<path d="M70.6,22.7c0.5,0,1-0.2,1.4-0.6l5.3-5.3c0.8-0.8,0.8-2.1,0-2.9c-0.8-0.8-2.1-0.8-2.9,0l-5.3,5.3c-0.8,0.8-0.8,2.1,0,2.9
			C69.6,22.5,70.1,22.7,70.6,22.7z"/>
		<path d="M60.4,16.2c0.3,0.1,0.5,0.2,0.8,0.2c0.8,0,1.6-0.5,1.9-1.3l2.9-7c0.4-1-0.1-2.2-1.1-2.6s-2.2,0.1-2.7,1.1l-2.9,7
			C58.9,14.6,59.4,15.8,60.4,16.2z"/>
		<path d="M50,14.1c1.1,0,2-0.9,2-2V4.5c0-1.1-0.9-2-2-2s-2,0.9-2,2v7.6C48,13.2,48.9,14.1,50,14.1z"/>
		<path d="M43.2,34.7c1-0.6,1.3-1.8,0.7-2.8s-1.8-1.3-2.8-0.7c-0.4,0.2-4,2.5-4.3,6.3c-0.2,2.5,1.1,4.9,3.7,7
			c0.4,0.3,0.8,0.5,1.3,0.5c0.6,0,1.2-0.3,1.6-0.7c0.7-0.9,0.6-2.1-0.3-2.9c-1.1-0.9-2.4-2.2-2.3-3.6C41,36.4,42.6,35.1,43.2,34.7z"
			/>
		<path d="M56.8,34.7c0.6,0.4,2.2,1.7,2.3,3.1c0.1,1.3-1.2,2.7-2.3,3.6c-0.9,0.7-1,2-0.3,2.9c0.4,0.5,1,0.7,1.6,0.7
			c0.5,0,0.9-0.2,1.3-0.5c2.7-2.2,3.9-4.6,3.7-7c-0.3-3.8-3.9-6-4.3-6.3c-1-0.6-2.2-0.3-2.8,0.7C55.5,32.9,55.8,34.1,56.8,34.7z"/>
		<path d="M84.2,52.7c-0.3-0.9-1-1.5-1.9-1.5h-2c0.9-1.6,1.5-3.4,1.5-5.3c0-4.3-2.4-8.1-6.1-9.9c-0.8-6.3-5.9-11.3-12.1-11.5
			c-2.9-4.4-8.9-6-13.5-3.7c-4.6-2.4-10.6-0.8-13.5,3.7c-6.2,0.2-11.3,5.2-12.1,11.5c-3.7,1.8-6.1,5.6-6.1,9.9
			c0,1.9,0.6,3.7,1.5,5.3h-2c-0.9,0-1.7,0.6-1.9,1.5c-0.9,3-1.3,6.1-1.3,9.4c0,19.5,15.9,35.4,35.4,35.4c19.6,0,35.5-15.9,35.5-35.4
			C85.5,58.8,85,55.7,84.2,52.7z M60.5,27.5c0.4,0.7,1.7,1.1,2.5,1.1c4.5,0,8.3,3.8,8.6,8.5c-0.7,3.4-2.7,5.9-6.2,7.2
			c-1,0.4-1.6,1.6-1.2,2.6c0.3,0.8,1.1,1.3,1.9,1.3c0.2,0,0.5,0,0.7-0.1c4.6-1.8,6.9-4.9,8-7.7c1.7,1.3,2.7,3.3,2.7,5.6
			c0,1.9-0.7,3.6-2,4.9c-0.1,0.1-0.1,0.3-0.2,0.4H52V24.4C55.1,22.9,59,24.3,60.5,27.5z M24.3,50.8c-1.3-1.3-2-3-2-4.9
			c0-2.3,1-4.3,2.7-5.6c1.1,2.9,3.4,5.9,8,7.7c0.2,0.1,0.5,0.1,0.7,0.1c0.8,0,1.6-0.5,1.9-1.3c0.4-1-0.1-2.2-1.2-2.6
			c-3.5-1.4-5.5-3.8-6.2-7.2c0.3-4.7,4-8.5,8.5-8.5l0.6,0.1c0.8,0,1.6-0.4,2-1.1c1.6-3.2,5.5-4.6,8.5-3.1v26.8H24.5
			C24.4,51.1,24.4,50.9,24.3,50.8z M50,93.4c-17.3,0-31.4-14.1-31.4-31.4c0-2.3,0.3-4.6,0.8-6.8h61.3c0.5,2.2,0.8,4.4,0.8,6.8
			C81.4,79.4,67.3,93.4,50,93.4z"/>
		<circle cx="39.4" cy="65.8" r="4.4"/>
		<circle cx="60.6" cy="65.8" r="4.4"/>
		<path d="M57.5,76.6c-1.1-0.4-2.2,0.1-2.6,1.2c-0.8,2.1-2.8,3.4-4.9,3.4c-2.2,0-4.1-1.4-4.9-3.4c-0.4-1.1-1.5-1.6-2.6-1.2
			s-1.6,1.5-1.2,2.6c1.3,3.7,4.8,6.1,8.7,6.1s7.4-2.4,8.7-6.1C59.1,78.2,58.6,77,57.5,76.6z"/>
	</g>
</g>
</svg>
