<?xml version="1.0" encoding="utf-8"?>
<!-- Generator: Adobe Illustrator 23.1.1, SVG Export Plug-In . SVG Version: 6.00 Build 0)  -->
<svg version="1.1" xmlns="http://www.w3.org/2000/svg" xmlns:xlink="http://www.w3.org/1999/xlink" x="0px" y="0px"
	 viewBox="0 0 100 110.4" style="enable-background:new 0 0 100 110.4;" xml:space="preserve">
<style type="text/css">
	.st0{fill:none;}
</style>
<g id="Layer_2">
</g>
<g id="Layer_1">
	<rect x="9" y="14.2" class="st0" width="82" height="82"/>
	<path d="M82.8,53.8l0-0.1c0-0.3-0.1-0.7-0.3-0.9c-0.3-0.4-0.8-0.8-1.3-0.9l-1.2,0c-0.4-1.5-1.4-2.8-2.6-3.7c-0.9-0.6-1.9-1.1-3-1.3
		c0.1-0.3,0.3-0.5,0.4-0.8c0.6-1.7,0.5-3.7-0.2-5.3c-0.7-1.6-2-2.9-3.6-3.6c-0.9-0.4-1.9-0.6-2.9-0.6l-1.1,0c0.4-0.6,0.7-1.3,1-2
		c0.6-1.6,0.9-3.2,0.9-5c0-1.4-0.2-2.8-0.6-4.1c-0.7-2.2-1.9-4-3.4-5.3c-1.2-1-2.7-1.5-4.2-1.6c-0.1,0-0.3,0-0.4,0
		c-0.4,0-0.8,0.2-1.1,0.5c-0.5,0.4-0.7,1-0.7,1.6l0.2,0.9c0.2,0.9,0.3,1.7,0.2,2.4c-0.1,0.7-0.2,1.2-0.5,1.5
		c-0.2,0.2-0.5,0.4-0.9,0.6c-0.5,0.2-1.2,0.3-2,0.2l-15.5,0l-0.1,0c-1.3,0-2.6,0.4-3.7,1.1c-1.4,0.9-2.5,2.4-3,4
		c-0.4,1.4-0.4,2.9,0.1,4.3c0.1,0.3,0.2,0.5,0.3,0.8h-1.2c-0.7,0-1.4,0.1-2.1,0.3c-1.8,0.6-3.4,1.9-4.3,3.6c-0.8,1.6-1,3.5-0.5,5.3
		c0.1,0.4,0.3,0.8,0.5,1.2c-1.4,0.3-2.7,0.9-3.7,1.9c-0.9,0.9-1.6,2-1.9,3.2l-0.9,0l-0.1,0c-0.3,0-0.7,0.1-0.9,0.3
		c-0.5,0.3-0.8,0.9-0.9,1.5l0,25.8l0,0.2c0,1.8,0.5,3.6,1.3,5.3c1,2,2.5,3.7,4.3,4.9c2,1.3,4.3,2,6.7,2c6.8,0,13.7,0,20.5,0
		c6.8,0,13.7,0,20.5,0l0.2,0c1.9,0,3.8-0.5,5.4-1.4c1.9-1,3.5-2.4,4.6-4.2c1.3-2,2-4.4,2-6.7c0-5.7,0-11.4,0-17.1L82.8,53.8z
		 M29.5,87.7c-0.1,0-0.2,0-0.3,0c-1.2-0.1-2.4-0.4-3.5-1c-1.4-0.8-2.6-2-3.4-3.4c-0.6-1.2-0.9-2.5-0.9-3.8c0-5.3,0-10.6,0-15.9h57.4
		v15.9c0,1.1-0.2,2.1-0.6,3.1c-0.8,1.9-2.2,3.4-4.1,4.3c-1.1,0.5-2.3,0.8-3.5,0.8C56.8,87.7,43.2,87.7,29.5,87.7z M44,40.6l2.2,0
		l0.1,0c0.5,0,0.9-0.3,1.2-0.6c0.5-0.5,0.7-1.2,0.6-1.8c-0.1-0.7-0.7-1.3-1.4-1.5c-0.1,0-0.2,0-0.3-0.1l-6.7,0
		c-0.8,0-1.6-0.3-2.1-0.9c-0.6-0.6-1-1.4-1-2.2c0-0.8,0.3-1.6,0.9-2.2c0.6-0.6,1.4-0.9,2.2-0.9c3.4,0,6.8,0,10.2,0l5.1,0
		c1.3,0.1,2.4-0.1,3.4-0.4c1.1-0.4,2.1-1,2.8-1.8c0.5-0.6,0.9-1.3,1.1-2.1c0.2-0.7,0.3-1.4,0.4-2.1c0.2,0.2,0.3,0.4,0.5,0.6
		c0.7,1,1.1,2.2,1.3,3.6c0.2,1.5,0.1,3.1-0.4,4.5c-0.4,1.1-0.9,2.1-1.6,2.8c-0.6,0.7-1.4,1.1-2.2,1.1l-0.1,0c-0.1,0-0.2,0-0.3,0
		c-0.5,0-0.9,0.3-1.2,0.6c-0.5,0.5-0.7,1.2-0.6,1.8c0.1,0.7,0.7,1.3,1.4,1.5c0.1,0,0.2,0.1,0.3,0.1l0.3,0c0.3,0,0.5,0,0.8-0.1
		c0.1,0,0.2,0,0.3,0l6.6,0c1,0,2,0.5,2.6,1.4c0.4,0.6,0.6,1.4,0.5,2.1c-0.1,0.7-0.5,1.4-1,1.9c-0.5,0.4-1.2,0.7-1.8,0.8l-0.1,0
		c-0.1,0-0.2,0-0.3,0c-0.1,0-0.1,0-0.2,0c-0.2,0-0.4,0.1-0.6,0.2c-0.1,0.1-0.2,0.1-0.3,0.2c-0.1,0.1-0.2,0.2-0.3,0.3
		c-0.1,0.1-0.2,0.2-0.2,0.3C66,48,66,48.2,65.9,48.4c-0.1,0.3,0,0.6,0,0.9c0,0.1,0.1,0.3,0.2,0.4c0,0.1,0.1,0.1,0.1,0.1
		c0,0.1,0.1,0.1,0.1,0.2c0.2,0.2,0.4,0.4,0.7,0.6c0.1,0.1,0.3,0.1,0.5,0.1c0.1,0,0.2,0,0.2,0l5.3,0l0.1,0c0.7,0,1.5,0.3,2,0.8
		c0.1,0.1,0.1,0.1,0.2,0.2H24.6c0.6-0.7,1.4-1.1,2.3-1.1c1.1,0,2.2,0,3.3,0l1.6,0c0.1,0,0.3,0,0.3,0l0.2,0l0.1,0
		c0.4-0.1,0.7-0.3,1-0.5c0.1-0.1,0.1-0.1,0.2-0.2c0.1-0.1,0.1-0.2,0.2-0.3c0.1-0.2,0.2-0.5,0.2-0.8c0-0.2,0-0.4,0-0.5
		c0-0.1,0-0.1,0-0.2c0-0.1,0-0.1-0.1-0.2c-0.2-0.6-0.7-1-1.3-1.2c-0.1,0-0.1,0-0.2-0.1c-0.1,0-0.2,0-0.2,0l-0.2,0
		c-0.8,0-1.6-0.3-2.1-0.9c-0.6-0.6-0.9-1.4-0.9-2.2c0-0.8,0.4-1.7,1-2.3c0.6-0.5,1.3-0.8,2.1-0.8c2.3,0,4.7,0,7,0l0.4,0L44,40.6z
		 M67.9,50.1L67.9,50.1L67.9,50.1L67.9,50.1z M33.3,48.3L33.3,48.3L33.3,48.3L33.3,48.3z M78.7,55.9v3.6H21.3l0-3.6H78.7z
		 M80.7,52.6L80.7,52.6L80.7,52.6L80.7,52.6z"/>
</g>
</svg>
