<?xml version="1.0" encoding="utf-8"?>
<!-- Generator: Adobe Illustrator 23.1.1, SVG Export Plug-In . SVG Version: 6.00 Build 0)  -->
<svg version="1.1" xmlns="http://www.w3.org/2000/svg" xmlns:xlink="http://www.w3.org/1999/xlink" x="0px" y="0px"
	 viewBox="0 0 100 110.4" style="enable-background:new 0 0 100 110.4;" xml:space="preserve">
<style type="text/css">
	.st0{fill:none;}
</style>
<g id="Layer_2">
</g>
<g id="Layer_1">
	<path d="M69.5,46.2c1.7-7.5-2.4-12.8-6.9-14.6c-4-1.6-8.3-0.5-11.3,2.8c-3-3.3-7.3-4.4-11.3-2.8c-4.5,1.8-8.6,7.1-6.9,14.6
		c0.2,0.8,0.4,1.6,0.7,2.5h-2.5c-1.1,0-2,0.9-2,2s0.9,2,2,2h4.5c5,7.7,14.3,11.7,14.7,11.8c0.2,0.1,0.5,0.2,0.8,0.2s0.5-0.1,0.8-0.2
		c0.4-0.2,9.7-4.2,14.7-11.8h5c1.1,0,2-0.9,2-2s-0.9-2-2-2h-2.9C69.1,47.8,69.3,47,69.5,46.2z M43.7,34.9c1.6,0,4,0.7,5.9,3.9
		c0.4,0.6,1,0.9,1.7,0.9s1.4-0.4,1.7-0.9c2.9-5,7-3.9,8.1-3.4c3,1.2,5.7,4.8,4.5,10c-0.2,1.1-0.6,2.2-1.2,3.3h-7.7L53,42.7
		c-0.4-0.6-1-0.9-1.7-0.9s-1.3,0.3-1.7,0.9l-3.7,5.9h-7.8c-0.6-1.1-1-2.2-1.2-3.3c-1.1-5.2,1.5-8.8,4.5-10
		C42.1,35.1,42.9,34.9,43.7,34.9z M47.1,52.7c0.7,0,1.3-0.4,1.7-0.9l2.6-4.1l2.6,4.1c0.4,0.6,1,0.9,1.7,0.9h6.1
		c-3.7,4.2-8.7,6.9-10.4,7.8c-1.8-0.9-6.8-3.6-10.4-7.8H47.1z"/>
	<path d="M43.8,79.4c-1.1,0-2,0.9-2,2v12.8c0,1.1,0.9,2,2,2s2-0.9,2-2V81.4C45.8,80.3,44.9,79.4,43.8,79.4z"/>
	<path d="M59.1,79.4c-1.1,0-2,0.9-2,2v12.8c0,1.1,0.9,2,2,2s2-0.9,2-2V81.4C61.1,80.3,60.2,79.4,59.1,79.4z"/>
	<path d="M51.5,82.6c-1.1,0-2,0.9-2,2v9.6c0,1.1,0.9,2,2,2s2-0.9,2-2v-9.6C53.5,83.5,52.6,82.6,51.5,82.6z"/>
	<path d="M74.3,23.6c-12.6-12.6-33-12.6-45.6,0c-6.1,6.1-9.4,14.2-9.4,22.8c0,8.6,3.3,16.7,9.4,22.8c6.1,6.1,14.2,9.4,22.8,9.4
		s16.7-3.3,22.8-9.4c6.1-6.1,9.4-14.2,9.4-22.8C83.7,37.8,80.3,29.7,74.3,23.6z M79.7,46.4c0,7.6-2.9,14.6-8.3,20
		c-5.3,5.3-12.4,8.3-20,8.3c-7.6,0-14.6-2.9-20-8.3c-5.3-5.3-8.3-12.4-8.3-20s2.9-14.6,8.3-20c5.3-5.3,12.4-8.3,20-8.3
		s14.6,2.9,20,8.3S79.7,38.9,79.7,46.4z"/>
</g>
</svg>
