<?xml version="1.0" encoding="utf-8"?>
<!-- Generator: Adobe Illustrator 23.1.1, SVG Export Plug-In . SVG Version: 6.00 Build 0)  -->
<svg version="1.1" xmlns="http://www.w3.org/2000/svg" xmlns:xlink="http://www.w3.org/1999/xlink" x="0px" y="0px"
	 viewBox="0 0 100 110.4" style="enable-background:new 0 0 100 110.4;" xml:space="preserve">
<style type="text/css">
	.st0{fill:none;}
</style>
<g id="Layer_2">
</g>
<g id="Layer_1">
	<path d="M20.2,91.7h5.1c1,0,2-0.4,2.6-1.3c0.6-0.8,0.8-1.8,0.6-2.7c-1.4-6,0-10.2,4.4-12.6c2.6-1.4,5.8-1.2,8.3,0.5
		c4.4,3.2,13,8.4,21.7,6.8c6.5-1.1,12.8-6.4,16.6-13.7c3.1-5.8,7-18.1-0.6-34c-3.5-7.4-7.8-11.5-12.8-12.4c-6-1-11.4,2.9-14.8,6.3
		c-0.2,0.2-0.4,0.2-0.6,0.1c-0.1,0-0.2-0.1-0.2-0.2c-0.5-3.9,2.3-9.1,3.6-11c0.5-0.9,0.7-2.1,0.3-3.1c-0.4-1.1-1.2-1.8-2.2-2.2
		l-3.9-1.3c-1.6-0.5-3.3,0.1-4.2,1.4c-5.2,7.7-7,14.4-5.3,19.9C40.1,37,44,40.7,49.8,43c1.7,0.6,3.1,1.9,3.7,3.5
		c0.6,1.4,0.6,3,0,4.3c-1.2,2.8-3.3,5.7-6.2,8.5c-2.2,2.1-5.1,3.3-8.2,3.5c-21.9,1.3-22.4,21.7-22.3,25.8
		C17,90.4,18.4,91.7,20.2,91.7z M39.2,67.1c4.1-0.3,8.1-2,11-4.8c3.4-3.2,5.8-6.6,7.3-10c1-2.5,1-5.2-0.1-7.7
		c-1.2-2.6-3.3-4.8-6.1-5.8c-3.1-1.3-7.2-3.6-8.5-7.7c-1.2-4,0.3-9.3,4.5-15.7l2.4,0.8c-2.1,3.5-4.2,8.5-3.6,13
		c0.3,1.7,1.4,3.1,3.2,3.8c1.8,0.6,3.8,0.2,5.1-1.2c2.2-2.2,6.6-5.8,11-5.1c3.6,0.6,6.8,4,9.6,10c6.8,14.3,3.3,25.1,0.7,30.2
		c-3.2,6-8.5,10.5-13.6,11.4c-7.2,1.3-14.6-3.2-18.4-6c-3.8-2.8-8.9-3.1-12.9-0.9c-3.3,1.8-8.6,6.3-6.8,16h-2.7
		C21.4,81.4,23.2,68.1,39.2,67.1z"/>
	<path d="M47.9,72.1c2.7,1.6,12.5,6.6,20.2-0.4c6.8-6.3,7.5-15,7.5-18.6c0-0.9-0.9-1.4-1.7-1.1c-1.8,0.8-4.5,2.6-5.8,6
		c-2.1,5.4-5.6,4.8-13,6.5c-5.6,1.3-7.2,4.7-7.7,6.3C47.3,71.2,47.5,71.8,47.9,72.1z"/>
</g>
</svg>
